<?xml version="1.0" standalone="no"?>
<!DOCTYPE svg PUBLIC "-//W3C//DTD SVG 20010904//EN"
 "http://www.w3.org/TR/2001/REC-SVG-20010904/DTD/svg10.dtd">
<svg version="1.0" xmlns="http://www.w3.org/2000/svg"
 width="50.000000pt" height="50.000000pt" viewBox="0 0 880.000000 880.000000"
 preserveAspectRatio="xMidYMid meet">

<g transform="translate(0.000000,880.000000) scale(0.100000,-0.100000)"
fill="#000000" stroke="none">
<path d="M4195 8694 c-295 -22 -479 -46 -685 -89 -1250 -261 -2337 -1089
-2926 -2230 -253 -489 -398 -975 -460 -1538 -21 -186 -24 -646 -5 -822 29
-278 73 -524 136 -755 314 -1147 1109 -2128 2170 -2676 489 -253 975 -398
1538 -460 186 -21 646 -24 822 -5 278 29 524 73 755 136 1147 314 2128 1109
2676 2170 253 489 398 975 460 1538 21 186 24 646 5 822 -29 278 -73 524 -136
755 -314 1147 -1109 2128 -2170 2676 -487 252 -983 401 -1530 459 -136 15
-549 27 -650 19z m52 -1722 c10 8 17 8 25 0 8 -8 15 -9 25 -1 9 8 17 8 27 0
10 -9 16 -9 21 -1 5 8 11 8 20 0 8 -7 19 -9 26 -5 6 4 24 -2 39 -14 19 -14 30
-17 32 -9 3 8 14 5 34 -9 16 -11 34 -18 41 -16 7 3 22 -5 35 -16 12 -12 29
-19 38 -16 10 3 29 -9 50 -30 24 -25 37 -32 46 -24 9 7 320 -320 1186 -1248
645 -692 1192 -1278 1215 -1303 l41 -45 -105 -120 c-57 -66 -109 -122 -114
-123 -5 -2 -28 17 -50 42 -60 68 -112 90 -74 32 10 -14 14 -33 11 -42 -3 -9
-3 -21 1 -27 4 -7 8 -30 8 -53 1 -22 5 -45 8 -51 10 -15 -266 -333 -289 -333
-3 0 -3 11 0 24 3 14 1 28 -4 31 -6 4 -8 16 -5 26 4 11 2 26 -5 34 -8 9 -8 15
0 20 8 5 8 11 -1 21 -6 7 -9 21 -5 29 3 9 -1 27 -10 40 -9 13 -13 29 -9 35 4
6 4 19 0 28 -4 9 -8 35 -9 57 0 22 -5 46 -10 53 -5 8 -4 18 2 24 8 8 5 19 -8
39 -11 15 -17 34 -14 43 3 9 1 23 -5 30 -9 10 -9 16 -1 21 8 5 8 11 -1 21 -6
7 -9 21 -5 29 3 9 -1 27 -10 40 -9 13 -13 29 -9 35 4 6 3 19 -1 28 -4 9 -7 35
-8 57 -1 22 -5 45 -9 52 -4 6 -4 18 -1 27 3 9 -1 27 -9 40 -9 13 -13 33 -11
44 3 11 1 23 -6 27 -7 5 -8 11 -1 19 14 17 -736 823 -752 807 -7 -7 -6 -15 3
-26 9 -11 10 -18 1 -29 -9 -11 -9 -16 -1 -21 7 -4 9 -18 6 -30 -3 -13 -2 -26
4 -30 5 -3 7 -12 4 -19 -3 -8 2 -28 10 -45 11 -20 12 -32 5 -36 -7 -5 -5 -13
5 -24 12 -13 13 -20 4 -29 -8 -8 -8 -15 1 -26 7 -8 10 -20 6 -26 -4 -6 1 -22
10 -36 9 -14 13 -33 10 -44 -3 -10 -1 -21 5 -25 6 -4 7 -12 0 -24 -6 -12 -5
-22 2 -29 8 -8 8 -15 -1 -26 -8 -9 -8 -16 -2 -20 13 -9 8 -93 -7 -108 -8 -8
-9 -15 -1 -25 9 -9 8 -17 -1 -28 -10 -12 -10 -19 -2 -27 8 -8 6 -18 -8 -38
-14 -20 -16 -30 -8 -38 9 -9 7 -19 -9 -41 -16 -21 -19 -31 -11 -39 9 -9 3 -22
-20 -51 -18 -23 -28 -42 -22 -46 6 -3 10 -10 10 -14 0 -8 -134 -167 -305 -361
-374 -425 -506 -582 -500 -599 3 -11 -8 -35 -30 -64 -21 -27 -33 -52 -29 -61
3 -9 -1 -28 -11 -42 -12 -19 -14 -29 -5 -39 8 -10 8 -15 0 -20 -7 -4 -9 -17
-6 -29 3 -12 -1 -32 -9 -44 -9 -12 -11 -23 -6 -26 5 -4 8 -27 6 -53 -2 -30 3
-56 12 -70 8 -13 12 -30 9 -39 -4 -9 -1 -23 5 -30 6 -7 8 -18 4 -23 -3 -6 1
-24 10 -41 9 -17 13 -35 9 -41 -3 -6 6 -23 20 -38 16 -17 24 -34 20 -44 -6
-18 28 -59 170 -204 60 -62 96 -91 106 -88 9 3 27 -6 40 -20 17 -18 26 -22 31
-13 6 9 15 6 34 -12 19 -17 28 -21 36 -13 9 9 16 8 27 -3 12 -12 16 -13 23 -3
6 10 14 8 34 -11 22 -20 28 -22 35 -10 7 12 12 12 21 3 9 -9 16 -9 25 -2 16
13 36 2 32 -16 -4 -16 -247 -298 -269 -313 -13 -8 -22 -6 -38 10 -13 11 -29
17 -38 14 -9 -4 -25 2 -39 15 -12 12 -28 18 -34 14 -7 -4 -31 12 -60 40 -32
32 -50 43 -55 35 -5 -8 -34 14 -86 66 -44 43 -87 79 -97 79 -10 0 -16 7 -16
17 1 10 -31 55 -71 100 -47 53 -70 87 -65 94 6 6 -7 30 -35 63 -24 30 -41 60
-38 67 3 7 -5 27 -16 43 -13 18 -17 32 -11 36 6 4 0 20 -15 40 -17 21 -22 36
-15 40 7 4 4 16 -9 34 -12 16 -18 36 -15 48 3 12 1 24 -6 28 -8 5 -8 10 1 21
9 10 9 17 0 28 -6 7 -9 20 -5 29 3 8 0 18 -6 22 -8 5 -8 11 1 21 9 11 9 17 -1
29 -10 12 -10 18 -1 29 7 8 8 17 3 20 -5 3 -8 27 -7 53 1 26 -2 53 -7 60 -5 7
-5 14 2 18 6 4 8 16 5 26 -4 12 0 31 10 46 12 17 14 28 6 36 -7 7 -4 19 10 39
15 21 18 32 10 41 -8 10 -2 23 20 50 22 27 28 41 21 50 -8 9 -2 23 19 51 17
23 27 47 24 57 -7 20 8 38 440 533 181 208 336 387 343 397 8 11 10 25 5 33
-8 15 -541 590 -712 769 -61 63 -99 96 -109 92 -8 -3 -21 0 -30 7 -12 10 -16
11 -19 0 -4 -9 -13 -6 -34 9 -24 17 -33 18 -44 9 -11 -9 -15 -9 -15 -1 0 6 -7
11 -15 11 -8 0 -15 -5 -15 -11 0 -8 -4 -8 -14 0 -11 9 -19 9 -35 -1 -12 -7
-21 -17 -21 -22 0 -4 -7 -3 -16 5 -20 17 71 118 -1097 -1220 l-972 -1113 -108
113 c-60 63 -120 129 -134 146 l-25 33 28 33 c16 18 456 522 978 1120 542 621
954 1086 961 1083 7 -2 43 27 80 65 47 47 72 65 80 59 8 -6 22 2 45 25 23 24
37 32 45 25 8 -6 19 -3 34 11 16 15 25 18 35 10 9 -7 16 -7 24 1 8 8 15 8 27
-2 12 -10 15 -10 15 0 0 8 8 10 23 6 14 -3 32 0 43 8 16 12 22 12 46 -5 17
-13 29 -16 33 -9 5 8 11 7 21 -1 10 -8 17 -9 28 0 10 9 16 8 26 -4 10 -13 15
-13 21 -3 6 9 14 7 33 -11 13 -13 30 -20 36 -16 6 4 29 -7 50 -24 21 -17 45
-29 52 -26 8 3 43 -25 85 -70 41 -43 77 -73 85 -70 8 3 95 -83 220 -217 114
-123 225 -240 246 -262 45 -43 75 -42 43 3 -14 19 -17 31 -10 43 6 11 5 19 -1
23 -6 4 -8 16 -5 26 4 11 2 26 -5 34 -7 9 -8 15 -1 19 6 4 3 20 -9 41 -12 22
-16 37 -9 41 7 4 5 12 -5 23 -12 13 -13 20 -4 29 8 8 8 15 -1 26 -7 8 -10 20
-6 25 3 6 1 19 -5 30 -7 13 -7 22 0 26 6 4 3 17 -9 34 -13 18 -17 32 -11 41 5
9 5 19 -2 27 -5 7 -8 18 -5 25 2 7 0 21 -4 30 -6 10 -5 19 1 23 6 4 3 17 -10
35 -11 15 -17 35 -14 44 3 9 1 23 -5 30 -8 10 -9 16 -1 21 7 4 6 12 -2 24 -40
57 -663 711 -673 707 -7 -2 -29 9 -49 25 -20 17 -41 27 -46 24 -6 -4 -17 -1
-25 5 -11 9 -19 10 -28 1 -8 -6 -17 -8 -21 -4 -11 11 -65 12 -72 1 -3 -5 -12
-4 -20 3 -11 9 -18 9 -26 1 -8 -8 -15 -8 -24 -2 -8 8 -31 -10 -82 -62 -38 -40
-613 -696 -1277 -1458 -664 -762 -1214 -1392 -1222 -1400 -13 -13 -28 -1 -130
105 -63 66 -123 131 -133 145 l-18 25 1239 1420 c865 992 1244 1420 1258 1420
12 0 42 24 72 58 37 42 55 55 63 48 9 -8 22 -1 46 24 26 27 36 32 47 23 10 -8
19 -6 37 11 16 15 26 19 31 11 4 -7 15 -4 33 9 16 12 31 16 36 11 6 -6 15 -5
23 2z m1330 -3531 c9 8 17 8 27 0 7 -6 20 -9 28 -6 23 9 132 -113 118 -130 -8
-10 -8 -15 0 -20 7 -4 9 -18 6 -30 -3 -13 -2 -27 4 -30 6 -4 -2 -24 -19 -49
-16 -23 -29 -50 -28 -58 3 -23 -244 -308 -261 -302 -8 2 -28 -7 -44 -21 -19
-16 -37 -23 -48 -20 -10 3 -21 1 -25 -5 -5 -8 -11 -7 -21 1 -11 9 -18 9 -27 0
-18 -18 -129 104 -121 134 3 13 1 26 -6 30 -8 5 -8 11 1 21 9 11 9 18 1 26 -8
8 -3 22 18 53 19 27 25 46 19 52 -14 14 251 315 266 303 8 -6 22 2 45 25 22
23 37 32 44 25 6 -6 14 -6 23 1z"/>
</g>
</svg>
